<svg width="597" height="764" viewBox="0 0 597 764" fill="none" xmlns="http://www.w3.org/2000/svg">
<g clip-path="url(#clip0_678_9651)">
<path d="M540.859 482.605C637.065 300.578 606.534 95.4028 472.665 24.3339C338.795 -46.735 152.282 43.2145 56.0754 225.242C-40.1312 407.269 -9.59963 612.444 124.27 683.513C258.139 754.582 444.652 664.632 540.859 482.605Z" fill="#034189"/>
<path d="M230.129 764C303.262 764 362.548 762.515 362.548 760.684C362.548 758.852 303.262 757.367 230.129 757.367C156.996 757.367 97.71 758.852 97.71 760.684C97.71 762.515 156.996 764 230.129 764Z" fill="#3B2645"/>
<path d="M230.467 760.684C318.145 760.684 389.222 689.873 389.222 602.524C389.222 515.174 318.145 444.364 230.467 444.364C142.79 444.364 71.7129 515.174 71.7129 602.524C71.7129 689.873 142.79 760.684 230.467 760.684Z" fill="#FA9E97"/>
<path d="M202.713 713.039C190.221 713.039 177.729 711.618 165.371 708.64C121.614 698.286 84.6775 670.674 61.3809 630.812C38.0843 591.019 31.2642 543.78 42.0684 497.828C52.8726 451.876 80.0857 412.759 118.711 387.583C157.336 362.407 202.713 354.286 246.471 364.641C290.228 374.995 327.164 402.607 350.461 442.469C373.758 482.263 380.578 529.501 369.774 575.453C358.969 621.405 331.689 660.522 293.131 685.698C265.445 703.7 234.316 713.039 202.713 713.039ZM209.331 361.663C132.824 361.663 62.4613 416.955 43.2839 498.166C32.5472 543.78 39.3673 590.613 62.4613 630.136C85.5553 669.659 122.222 697.068 165.642 707.354C177.931 710.265 190.356 711.686 202.713 711.686C234.046 711.686 264.905 702.482 292.388 684.547C330.676 659.575 357.686 620.729 368.491 575.115C379.227 529.501 372.407 482.669 349.313 443.146C326.219 403.622 289.552 376.213 246.133 365.927C233.843 363.017 221.486 361.663 209.331 361.663Z" fill="white"/>
<path d="M149.503 631.422C134.715 631.422 121.209 627.699 109.662 620.12C85.6905 604.419 73.1306 574.303 74.4136 535.253C75.6966 496.272 90.4849 453.094 116.145 413.639C141.805 374.183 175.23 343.12 210.344 326.201C245.458 309.282 278.073 308.605 302.045 324.238C326.017 339.939 338.577 370.055 337.294 409.104C336.011 448.086 321.222 491.264 295.562 530.719C269.902 570.174 236.477 601.238 201.363 618.157C183.131 627.023 165.574 631.422 149.503 631.422ZM116.618 413.909L117.023 414.18C91.4303 453.5 76.7095 496.542 75.4265 535.253C74.2111 573.964 86.5684 603.742 110.203 619.24C159.159 651.251 241.946 611.254 294.684 530.178C347.422 449.101 350.461 357.061 301.505 325.118C252.548 293.107 169.761 333.104 117.023 414.18L116.618 413.909Z" fill="white"/>
<path d="M135.39 570.716C125.666 570.716 117.698 567.806 113.039 561.715C106.826 553.729 107.029 541.547 113.646 527.471C120.196 513.461 132.148 499.249 147.477 487.338L147.747 487.677L147.477 487.338C179.147 462.704 215.273 456.072 227.968 472.517C240.663 488.963 225.2 522.327 193.53 546.961C173.542 562.324 151.866 570.716 135.39 570.716ZM148.017 488.015C132.824 499.791 120.939 513.935 114.457 527.809C108.042 541.547 107.771 553.391 113.781 561.106C126.139 577.145 161.657 570.377 192.99 546.082C224.322 521.786 239.65 488.963 227.226 472.991C214.801 457.019 179.282 463.719 148.017 488.015Z" fill="white"/>
<g opacity="0.3">
<path opacity="0.3" d="M364.98 518.537C370.719 534.712 373.623 551.766 373.555 568.956C373.555 652.536 305.962 720.213 222.634 720.213C144.844 720.213 80.8289 661.267 72.5907 585.537C71.983 591.154 71.7129 596.839 71.7129 602.523C71.7129 689.826 142.818 760.683 230.467 760.683C318.116 760.683 389.221 689.894 389.221 602.591C389.289 572.814 380.848 543.645 364.98 518.537Z" fill="#543753"/>
</g>
<path d="M331.553 166.214C331.553 166.214 319.871 173.726 308.797 191.931C297.723 210.136 285.906 227.258 285.906 227.258C285.906 227.258 281.584 190.374 283.61 185.501C285.636 180.629 292.928 169.868 294.617 166.214C296.305 162.559 304.34 157.348 304.408 155.25C304.475 153.152 303.598 146.587 303.26 146.384C302.922 146.181 298.871 147.67 298.263 149.836C297.79 151.392 297.453 152.746 297.453 152.746C297.453 152.746 291.983 155.791 291.038 155.859C290.092 155.927 285.636 153.558 285.568 153.152C285.5 152.746 289.282 143.948 290.43 143.474C291.578 143.001 297.925 147.941 299.141 147.941C300.356 147.941 302.922 146.317 303.057 145.369C303.192 144.422 295.157 136.165 294.481 136.098C293.806 136.03 286.919 134.812 285.973 135.488C285.028 136.165 279.896 140.632 279.896 140.632C279.896 140.632 279.896 125.269 279.896 122.156C279.896 119.043 279.221 109.433 277.802 108.756C276.384 108.215 274.831 108.079 273.346 108.282C272.67 108.486 272.265 112.749 272.265 112.749C272.265 112.749 268.686 112.208 267.741 112.952C266.796 113.697 264.837 142.798 264.837 143.068C264.837 143.339 259.773 137.18 259.165 136.03C258.558 134.879 256.464 127.841 255.519 127.57C254.573 127.3 251.872 127.097 251.535 127.773C251.197 128.45 253.358 138.602 253.493 139.752C253.628 140.903 260.043 154.573 260.381 156.671C260.718 158.769 262.069 176.365 262.474 179.952C262.879 183.539 258.355 225.701 257.342 243.297C256.329 260.893 257.207 276.662 258.287 278.286C259.368 279.91 268.214 285.663 272.941 283.294C277.667 280.925 290.7 270.706 303.125 258.795C315.55 246.884 330.203 231.251 330.203 231.251L331.553 166.214Z" fill="#F1B28F"/>
<path d="M285.838 227.19C285.838 227.19 287.053 236.665 287.526 245.192C287.526 245.192 290.16 237.138 288.877 222.723L285.838 227.19Z" fill="#DE835C"/>
<path d="M264.095 151.866C264.027 151.866 263.96 151.866 263.892 151.798C263.757 151.663 263.757 151.46 263.892 151.325C265.918 149.024 277.465 141.715 277.938 141.376C278.073 141.309 278.275 141.309 278.41 141.512C278.478 141.647 278.478 141.85 278.275 141.985C278.14 142.053 266.323 149.565 264.365 151.798C264.297 151.866 264.162 151.866 264.095 151.866Z" fill="#472938"/>
<path d="M272.941 138.872C272.941 138.872 272.873 138.872 272.941 138.872C272.738 138.872 272.603 138.737 272.603 138.534C272.603 138.331 273.414 120.329 273.211 117.081C273.008 114.035 272.063 113.155 272.063 113.155C271.928 113.02 271.928 112.817 271.996 112.682C272.131 112.546 272.333 112.546 272.468 112.614C272.603 112.682 273.616 113.697 273.819 117.013C274.021 120.329 273.211 137.857 273.211 138.602C273.211 138.737 273.076 138.872 272.941 138.872Z" fill="#472938"/>
<path d="M275.034 167.093C274.966 167.093 274.966 167.026 275.034 167.093C274.764 167.026 274.696 166.89 274.696 166.687C276.114 158.702 284.96 153.084 285.298 152.881C285.433 152.814 285.636 152.814 285.771 153.017C285.838 153.152 285.838 153.355 285.636 153.49C285.568 153.558 276.655 159.175 275.304 166.89C275.304 166.958 275.169 167.093 275.034 167.093Z" fill="#472938"/>
<path d="M339.05 754.932C339.32 756.353 342.494 761.023 358.497 762.444C374.501 763.865 394.084 758.045 403.74 756.962C411.843 756.082 422.175 753.037 425.281 752.022C425.821 751.886 426.226 751.345 426.226 750.736C426.226 749.788 426.159 748.232 426.091 746.337C412.991 746.54 394.489 751.413 372.273 754.458C355.526 756.759 344.249 752.36 339.32 749.721C339.05 751.48 338.982 753.172 339.05 754.932Z" fill="#3B2645"/>
<path d="M424.065 715.205C418.19 715.747 415.759 720.619 412.923 722.244C410.087 723.868 401.713 724.545 402.456 713.92C403.199 703.294 395.028 700.114 395.028 700.114C392.8 700.181 386.79 712.092 376.594 724.951C366.397 737.809 341.953 744.577 340.872 744.983C340.264 745.186 339.792 747.419 339.454 749.72C344.384 752.292 355.66 756.759 372.407 754.458C394.556 751.412 413.125 746.54 426.225 746.337C426.023 739.366 425.618 727.455 424.942 722.379C424.537 720.417 424.335 717.845 424.065 715.205Z" fill="#8891A5"/>
<path d="M402.456 713.987C401.781 724.613 410.087 723.936 412.923 722.312C415.759 720.687 418.258 715.815 424.065 715.273C423.525 708.438 423.119 701.129 423.119 701.129L394.961 700.181C395.028 700.181 403.132 703.43 402.456 713.987Z" fill="#F1B28F"/>
<path d="M371.529 740.246C384.764 739.028 402.456 716.288 402.456 716.288C402.389 715.544 402.389 714.732 402.456 713.987C403.132 703.362 395.028 700.181 395.028 700.181C392.8 700.249 386.79 712.16 376.594 725.019C372.677 730.027 366.532 734.087 360.522 737.2C363.629 739.637 367.545 740.72 371.529 740.246Z" fill="#3B2645"/>
<path d="M291.781 750.871C292.929 754.458 300.289 755.744 316.563 755.744C332.837 755.744 340.602 726.778 347.22 720.89C353.837 715.07 367.545 695.038 367.545 691.586C367.545 690.571 365.519 688.067 362.616 684.954C359.712 691.18 353.23 703.7 343.709 712.701C335.808 720.214 335.47 745.457 315.82 750.127C306.637 752.292 298.061 749.856 291.578 746.675C291.308 748.096 291.443 749.517 291.781 750.871Z" fill="#3B2645"/>
<path d="M342.493 665.531C335.538 672.975 337.766 682.044 337.429 685.698C337.091 689.353 324.599 690.3 322.64 689.488C320.682 688.676 318.589 685.631 314.672 685.698C312.309 685.766 310.148 686.917 308.865 688.879C307.852 701.805 306.029 717.168 305.219 723.259C303.868 733.343 298.061 735.914 295.157 737.945C293.131 739.298 291.781 743.291 291.511 746.743C297.993 749.923 306.569 752.36 315.753 750.194C335.47 745.592 335.74 720.281 343.641 712.769C353.162 703.768 359.645 691.316 362.548 685.022C355.526 677.442 343.371 666.546 342.493 665.531Z" fill="#8891A5"/>
<path d="M314.604 685.631C318.588 685.563 320.614 688.609 322.572 689.421C324.531 690.233 337.023 689.286 337.361 685.631C337.698 681.976 335.47 672.908 342.425 665.463C341.21 663.974 337.023 656.192 337.023 656.192L309.27 669.93C309.742 673.179 309.405 680.488 308.729 688.812C310.08 686.849 312.308 685.699 314.604 685.631Z" fill="#F1B28F"/>
<path d="M311.634 731.11C321.493 727.523 322.573 689.421 322.573 689.421C320.615 688.609 318.521 685.563 314.605 685.631C312.241 685.699 310.081 686.849 308.798 688.812C307.785 701.738 305.961 717.1 305.151 723.191C304.814 726.305 303.733 729.282 302.045 731.922C305.286 732.463 308.595 732.125 311.634 731.11Z" fill="#3B2645"/>
<path d="M428.183 309.823C428.183 309.823 463.837 370.326 463.837 400.983C463.837 431.641 433.18 534.171 432.64 547.977C432.1 561.783 442.972 591.967 439.528 622.421C436.084 652.875 423.119 701.061 423.119 701.061C423.119 701.061 405.697 703.7 394.96 700.114C394.96 700.114 394.488 609.562 388.14 572.543C381.793 535.524 376.863 457.087 376.863 457.087C376.863 457.087 311.7 527.674 309.607 539.382C307.514 551.09 319.466 558.805 325.138 594.132C330.81 629.459 337.09 656.259 337.09 656.259C337.09 656.259 324.26 671.419 309.337 669.998C309.337 669.998 253.763 544.593 256.937 528.215C260.11 511.838 324.395 391.238 326.759 376.958C329.122 362.679 330.81 344.541 333.782 325.93L428.183 309.823Z" fill="#8891A5"/>
<path d="M384.021 350.497C406.575 346.707 424.469 333.172 435.341 322.749C431.154 314.899 428.183 309.891 428.183 309.891L333.714 325.93C333.039 330.126 332.431 334.322 331.891 338.45C340.602 345.083 358.293 354.828 384.021 350.497Z" fill="#3B2645"/>
<g opacity="0.5">
<path opacity="0.5" d="M376.931 457.087V428.663C376.931 428.663 368.423 411.744 367.612 397.6L369.571 439.289L351.068 485.918L376.931 457.087Z" fill="#543753"/>
</g>
<path d="M333.781 287.625C335.74 297.303 333.781 325.93 333.781 325.93C333.781 325.93 338.508 336.556 363.898 340.751C389.288 344.947 428.183 309.823 428.183 309.823C424.537 301.567 423.929 292.092 424.199 284.783C367.544 276.053 333.781 287.625 333.781 287.625Z" fill="#F1B28F"/>
<path d="M425.685 302.244C424.402 296.491 423.929 290.671 424.2 284.783C417.379 283.7 410.897 282.956 404.752 282.414L406.305 296.085L425.685 302.244Z" fill="#DE835C"/>
<path d="M366.87 215.956C402.659 212.708 413.531 182.186 416.772 165.131L407.183 162.424L360.455 157.687L346.747 161.206C339.522 186.178 335.74 218.731 366.87 215.956Z" fill="#F1B28F"/>
<path d="M443.646 172.508L429.331 168.582C420.282 246.681 437.299 244.583 437.299 244.583L442.026 232.198L443.646 172.508Z" fill="#F1B28F"/>
<path d="M425.415 273.007C437.502 262.179 437.299 244.583 437.299 244.583C437.299 244.583 420.215 246.681 429.331 168.582L416.771 165.131C413.463 182.185 402.591 212.775 366.87 215.956C335.74 218.731 339.521 186.178 346.814 161.273L332.701 164.928C332.701 164.928 316.292 218.595 315.82 238.019C315.482 250.471 322.91 267.322 328.38 277.812C365.046 262.179 425.415 273.007 425.415 273.007Z" fill="#8891A5"/>
<path d="M424.2 284.783C424.335 280.79 424.74 276.865 425.483 272.939C425.483 272.939 365.114 262.111 328.38 277.744C331.419 283.632 333.782 287.558 333.782 287.558C333.782 287.558 367.545 276.053 424.2 284.783Z" fill="#3B2645"/>
<path d="M429.331 168.515C429.331 168.515 435.948 205.466 411.639 248.915L408.87 278.422L411.234 345.76C411.234 345.76 400.43 348.67 394.69 348.67C388.95 348.67 380.914 351.309 380.914 351.309L379.767 340.413L373.689 340.549C373.689 340.549 371.934 318.418 379.496 300.281C387.059 282.144 390.706 271.18 391.921 252.501C393.137 233.823 388.95 208.782 402.793 170.681L429.331 168.515Z" fill="white"/>
<path d="M442.094 232.198L438.042 216.836L437.367 244.515L442.094 232.198Z" fill="#DE835C"/>
<path d="M363.763 336.623C364.472 336.623 365.046 335.744 365.046 334.661C365.046 333.577 364.472 332.698 363.763 332.698C363.055 332.698 362.48 333.577 362.48 334.661C362.48 335.744 363.055 336.623 363.763 336.623Z" fill="#DE835C"/>
<path d="M362.75 136.436C362.75 136.436 363.02 164.319 348.03 201.405C333.039 238.492 331.823 251.554 335.335 287.558C338.846 323.562 330.203 352.324 330.203 352.324C330.203 352.324 290.227 360.648 274.358 339.059C274.358 339.059 293.941 293.852 302.719 239.846C311.498 185.84 332.701 164.792 332.701 164.792C332.701 164.792 336.753 153.152 345.936 154.37C345.936 154.506 353.364 135.962 362.75 136.436Z" fill="white"/>
<path d="M312.781 316.523C312.578 316.523 312.443 316.388 312.443 316.185C309.742 265.833 324.328 220.084 332.161 195.518L332.701 193.893C332.769 193.69 332.971 193.623 333.106 193.69C333.309 193.758 333.376 193.961 333.309 194.096L332.769 195.721C324.936 220.287 310.418 265.901 313.119 316.117C313.119 316.388 312.984 316.523 312.781 316.523Z" fill="#472938"/>
<path d="M336.212 183.81H336.145C335.942 183.742 335.875 183.539 335.942 183.404C341.547 164.116 345.599 154.506 345.666 154.438C345.734 154.235 345.936 154.167 346.139 154.235C346.341 154.303 346.409 154.506 346.341 154.709C346.274 154.776 342.222 164.386 336.685 183.607C336.483 183.674 336.347 183.81 336.212 183.81Z" fill="#472938"/>
<path d="M311.633 225.431H311.565C311.362 225.363 311.295 225.228 311.295 225.025C317.17 202.218 332.228 165.199 332.363 164.792C332.431 164.589 332.633 164.522 332.836 164.589C333.038 164.657 333.106 164.86 333.038 165.063C332.903 165.402 317.845 202.421 311.97 225.16C311.97 225.295 311.835 225.431 311.633 225.431Z" fill="#472938"/>
<path d="M379.834 340.819C379.632 340.819 379.497 340.684 379.497 340.481C379.497 340.278 379.361 317.674 383.751 307.184C383.818 306.981 384.021 306.913 384.223 306.981C384.426 307.049 384.494 307.252 384.426 307.455C380.104 317.809 380.239 340.278 380.239 340.481C380.172 340.684 380.037 340.819 379.834 340.819Z" fill="#472938"/>
<path d="M386.857 336.961C386.654 336.961 386.519 336.826 386.519 336.623C386.519 336.42 385.776 317.538 389.828 303.326C393.88 289.25 394.96 265.224 394.96 265.021C394.96 264.818 395.095 264.683 395.298 264.683C395.5 264.683 395.635 264.818 395.635 265.021C395.635 265.292 394.555 289.317 390.503 303.529C386.452 317.606 387.195 336.42 387.195 336.555C387.195 336.758 387.06 336.961 386.857 336.961Z" fill="#472938"/>
<path d="M400.633 306.642C400.565 306.642 400.565 306.642 400.633 306.642C400.362 306.575 400.295 306.439 400.295 306.236C402.928 292.43 400.835 264.006 400.835 263.668C400.835 263.465 400.97 263.329 401.173 263.329C401.375 263.329 401.51 263.465 401.51 263.668C401.51 263.939 403.604 292.498 400.97 306.372C400.903 306.507 400.768 306.642 400.633 306.642Z" fill="#472938"/>
<path d="M405.63 252.095C405.36 252.028 405.292 251.892 405.292 251.689C405.36 251.418 409.546 225.566 413.598 213.655C413.665 213.452 413.868 213.384 414.003 213.452C414.205 213.52 414.273 213.723 414.205 213.858C410.221 225.701 405.967 251.486 405.967 251.757C405.967 251.96 405.832 252.095 405.63 252.095Z" fill="#472938"/>
<path d="M400.633 249.253C400.498 249.253 400.363 249.117 400.296 248.982C400.296 248.847 398.067 237.409 400.971 216.768C400.971 216.565 401.173 216.43 401.376 216.497C401.579 216.497 401.714 216.7 401.646 216.903C398.81 237.477 400.971 248.779 400.971 248.914C400.971 249.05 400.836 249.253 400.633 249.253Z" fill="#472938"/>
<path d="M406.778 114.915L407.183 162.424H359.982L364.507 120.058L406.778 114.915Z" fill="#F1B28F"/>
<path d="M364.506 120.058C364.506 120.058 371.394 165.063 406.98 138.669L406.777 114.915L364.506 120.058Z" fill="#DE835C"/>
<path d="M356.915 112.844C359.964 111.974 361.028 106.314 359.292 100.203C357.557 94.0917 353.678 89.8427 350.629 90.7126C347.58 91.5824 346.516 97.2418 348.251 103.353C349.987 109.464 353.866 113.713 356.915 112.844Z" fill="#DE835C"/>
<path d="M406.846 119.381C406.846 119.381 406.711 130.954 406.17 138.669C406.17 138.669 400.633 156.197 403.132 172.508C405.63 188.818 404.82 200.864 400.903 206.684L405.293 204.586C405.293 204.586 427.779 204.857 427.509 172.034C427.509 172.034 438.853 153.626 421.836 132.037C404.82 110.448 414.409 98.6725 414.409 98.6725C414.409 98.6725 407.386 102.192 406.846 119.381Z" fill="#3B2645"/>
<path d="M414.273 98.6047C414.273 98.6047 407.386 102.192 406.778 119.381C406.778 119.381 406.643 130.954 406.103 138.669C408.804 131.496 411.099 124.186 412.99 116.742C409.141 104.899 414.273 98.6047 414.273 98.6047Z" fill="#3B2645"/>
<path d="M417.103 102.343C418.935 96.2602 417.96 90.5848 414.926 89.6667C411.891 88.7485 407.946 92.9352 406.113 99.0179C404.281 105.101 405.256 110.776 408.291 111.694C411.325 112.612 415.271 108.426 417.103 102.343Z" fill="#F1B28F"/>
<path d="M353.027 68.5564C353.027 68.5564 351.811 103.748 356.471 118.502C361.13 133.255 372.744 142.594 380.375 142.594C388.005 142.594 402.861 137.045 408.668 113.358C414.475 89.6715 413.8 59.9615 388.883 52.1787C363.966 44.3959 353.027 60.7059 353.027 68.5564Z" fill="#F1B28F"/>
<path d="M411.504 94.0028C411.504 94.0028 410.154 84.4604 405.022 79.2493C399.89 74.0383 389.356 70.5191 391.314 62.1949C391.314 62.1949 384.561 66.1878 372.406 66.1878C360.252 66.1878 351.878 75.6625 353.094 91.7695L351.541 90.6867C351.541 90.6867 345.734 67.812 352.824 56.7131C359.982 45.6141 376.863 38.5758 390.503 42.4333C404.144 46.2909 419.472 55.4272 418.122 73.2938C417.717 78.9786 416.906 84.5958 415.691 90.1453C415.691 90.0776 411.774 90.6867 411.504 94.0028Z" fill="#3B2645"/>
<path d="M363.899 96.7776C362.819 96.7776 361.941 95.9655 361.873 94.8826L361.806 93.6644C361.806 92.5816 362.616 91.7018 363.696 91.6342C364.777 91.6342 365.655 92.4463 365.722 93.5291L365.79 94.7473C365.79 95.8301 364.979 96.7776 363.899 96.7776Z" fill="#472938"/>
<path d="M394.083 97.7927C393.002 97.6574 392.259 96.6422 392.462 95.5594L392.665 94.3412C392.8 93.2584 393.813 92.5139 394.893 92.717C395.973 92.8523 396.716 93.8675 396.514 94.9503L396.311 96.1685C396.109 97.2513 395.096 97.9281 394.083 97.7927Z" fill="#472938"/>
<path d="M356.876 88.521C356.876 88.521 358.699 86.4907 362.953 86.4231C367.208 86.3554 368.558 86.7614 368.828 85.4079C369.098 84.0544 359.982 80.6029 356.876 88.521Z" fill="#472938"/>
<path d="M401.24 87.9119C401.24 87.9119 399.214 86.0169 394.623 86.22C390.031 86.423 388.68 86.8967 388.343 85.6109C388.005 84.325 397.661 80.1968 401.24 87.9119Z" fill="#472938"/>
<path d="M389.221 117.825L371.395 117.216C371.395 117.216 372.34 129.465 380.308 129.262C388.276 129.059 389.221 117.825 389.221 117.825Z" fill="white"/>
<path d="M379.227 112.479C378.079 112.479 376.999 112.208 376.121 111.802C375.378 111.396 374.973 110.854 374.77 110.245C374.365 108.689 375.176 104.899 376.121 100.161L376.459 98.6726C378.012 91.0251 373.825 88.9272 373.622 88.8595C373.42 88.7918 373.352 88.5211 373.42 88.3181C373.487 88.115 373.757 88.0474 373.96 88.115C374.163 88.1827 378.889 90.5514 377.201 98.8079L376.864 100.297C375.918 104.763 375.176 108.689 375.513 110.042C375.648 110.448 375.918 110.787 376.459 111.125C377.742 111.802 379.767 111.937 381.658 111.328C381.861 111.26 382.131 111.396 382.198 111.599C382.266 111.802 382.131 112.073 381.928 112.14C381.05 112.343 380.105 112.479 379.227 112.479Z" fill="#472938"/>
<path d="M443.647 172.508C443.647 172.508 457.76 173.184 464.783 193.352C471.806 213.452 494.022 271.924 494.9 282.685C495.777 293.446 492.469 302.108 477.14 305.289C464.108 307.996 429.534 297.912 426.698 297.641C423.862 297.371 415.826 297.168 413.125 292.498C410.424 287.828 408.939 279.91 408.939 279.91C408.939 279.91 401.848 277.203 400.633 277.203C399.417 277.203 390.842 277.745 390.031 276.459C389.221 275.173 389.221 272.736 389.491 271.586C389.491 271.586 388.005 268.879 388.478 267.255C388.478 267.255 386.925 263.329 387.06 262.45C387.195 261.57 391.382 258.998 392.26 258.795C393.137 258.592 403.266 258.186 403.266 258.186C403.266 258.186 400.228 254.464 399.688 254.328C399.147 254.193 391.922 254.464 391.922 254.464L391.787 256.291C391.787 256.291 389.829 254.599 389.491 253.652C389.153 252.704 389.761 249.929 390.571 249.591C391.382 249.253 400.97 246.072 403.874 247.087C406.778 248.102 416.029 253.787 417.244 255.682C418.46 257.577 425.28 276.594 427.441 278.015C429.602 279.436 440.676 280.993 458.368 277.203L433.181 213.384L443.647 172.508Z" fill="#F1B28F"/>
</g>
<defs>
<clipPath id="clip0_678_9651">
<rect width="597" height="764" fill="white"/>
</clipPath>
</defs>
</svg>
